<mxfile host="app.diagrams.net" agent="Mozilla/5.0 (X11; Linux x86_64) AppleWebKit/537.36 (KHTML, like Gecko) Chrome/132.0.0.0 Safari/537.36 OPR/117.0.0.0" version="26.2.4">
  <diagram name="Sida-1" id="YcQSIE8EWKW2Z-UMVsF0">
    <mxGraphModel dx="2894" dy="2297" grid="1" gridSize="10" guides="1" tooltips="1" connect="1" arrows="1" fold="1" page="1" pageScale="1" pageWidth="827" pageHeight="1169" math="0" shadow="0">
      <root>
        <mxCell id="0" />
        <mxCell id="1" parent="0" />
        <mxCell id="Kjr8ZNpruh3fFirJT9Ei-1" value="Konsument" style="rounded=0;whiteSpace=wrap;html=1;" vertex="1" parent="1">
          <mxGeometry x="60" y="270" width="120" height="60" as="geometry" />
        </mxCell>
        <mxCell id="Kjr8ZNpruh3fFirJT9Ei-7" style="edgeStyle=orthogonalEdgeStyle;rounded=0;orthogonalLoop=1;jettySize=auto;html=1;" edge="1" parent="1" source="Kjr8ZNpruh3fFirJT9Ei-2" target="Kjr8ZNpruh3fFirJT9Ei-6">
          <mxGeometry relative="1" as="geometry" />
        </mxCell>
        <mxCell id="Kjr8ZNpruh3fFirJT9Ei-2" value="bigip" style="image;html=1;image=img/lib/clip_art/networking/Firewall-page1_128x128.png" vertex="1" parent="1">
          <mxGeometry x="414" y="257" width="80" height="79" as="geometry" />
        </mxCell>
        <mxCell id="Kjr8ZNpruh3fFirJT9Ei-5" style="edgeStyle=orthogonalEdgeStyle;rounded=0;orthogonalLoop=1;jettySize=auto;html=1;" edge="1" parent="1" source="Kjr8ZNpruh3fFirJT9Ei-3" target="Kjr8ZNpruh3fFirJT9Ei-2">
          <mxGeometry relative="1" as="geometry" />
        </mxCell>
        <mxCell id="Kjr8ZNpruh3fFirJT9Ei-17" style="edgeStyle=orthogonalEdgeStyle;rounded=0;orthogonalLoop=1;jettySize=auto;html=1;entryX=0.5;entryY=1;entryDx=0;entryDy=0;" edge="1" parent="1" source="Kjr8ZNpruh3fFirJT9Ei-3" target="Kjr8ZNpruh3fFirJT9Ei-15">
          <mxGeometry relative="1" as="geometry" />
        </mxCell>
        <mxCell id="Kjr8ZNpruh3fFirJT9Ei-3" value="sjunet" style="ellipse;shape=cloud;whiteSpace=wrap;html=1;" vertex="1" parent="1">
          <mxGeometry x="220" y="256" width="120" height="80" as="geometry" />
        </mxCell>
        <mxCell id="Kjr8ZNpruh3fFirJT9Ei-4" style="edgeStyle=orthogonalEdgeStyle;rounded=0;orthogonalLoop=1;jettySize=auto;html=1;entryX=0.16;entryY=0.55;entryDx=0;entryDy=0;entryPerimeter=0;" edge="1" parent="1" source="Kjr8ZNpruh3fFirJT9Ei-1" target="Kjr8ZNpruh3fFirJT9Ei-3">
          <mxGeometry relative="1" as="geometry" />
        </mxCell>
        <mxCell id="Kjr8ZNpruh3fFirJT9Ei-6" value="&lt;font style=&quot;color: light-dark(rgb(0, 0, 0), rgb(102, 178, 255));&quot;&gt;API Gateway&lt;/font&gt;" style="sketch=0;outlineConnect=0;fontColor=#232F3E;gradientColor=none;fillColor=#8C4FFF;strokeColor=none;dashed=0;verticalLabelPosition=bottom;verticalAlign=top;align=center;html=1;fontSize=12;fontStyle=0;aspect=fixed;pointerEvents=1;shape=mxgraph.aws4.gateway_load_balancer;" vertex="1" parent="1">
          <mxGeometry x="580" y="258" width="78" height="78" as="geometry" />
        </mxCell>
        <mxCell id="Kjr8ZNpruh3fFirJT9Ei-8" value="&lt;font style=&quot;color: light-dark(rgb(0, 0, 0), rgb(0, 127, 255));&quot;&gt;Åtkomstintygstjänst&lt;/font&gt;&lt;div&gt;&lt;br&gt;&lt;/div&gt;" style="sketch=0;points=[[0,0,0],[0.25,0,0],[0.5,0,0],[0.75,0,0],[1,0,0],[0,1,0],[0.25,1,0],[0.5,1,0],[0.75,1,0],[1,1,0],[0,0.25,0],[0,0.5,0],[0,0.75,0],[1,0.25,0],[1,0.5,0],[1,0.75,0]];outlineConnect=0;fontColor=#232F3E;fillColor=#DD344C;strokeColor=#ffffff;dashed=0;verticalLabelPosition=bottom;verticalAlign=top;align=center;html=1;fontSize=12;fontStyle=0;aspect=fixed;shape=mxgraph.aws4.resourceIcon;resIcon=mxgraph.aws4.private_certificate_authority;" vertex="1" parent="1">
          <mxGeometry x="580" y="50" width="78" height="78" as="geometry" />
        </mxCell>
        <mxCell id="Kjr8ZNpruh3fFirJT9Ei-9" value="&lt;div&gt;Konsument&lt;/div&gt;hämtar intyg" style="rounded=0;orthogonalLoop=1;jettySize=auto;html=1;entryX=0;entryY=0.5;entryDx=0;entryDy=0;entryPerimeter=0;" edge="1" parent="1" source="Kjr8ZNpruh3fFirJT9Ei-2" target="Kjr8ZNpruh3fFirJT9Ei-8">
          <mxGeometry relative="1" as="geometry" />
        </mxCell>
        <mxCell id="Kjr8ZNpruh3fFirJT9Ei-10" value="intygsvalidering" style="edgeStyle=orthogonalEdgeStyle;rounded=0;orthogonalLoop=1;jettySize=auto;html=1;entryX=0.5;entryY=1;entryDx=0;entryDy=0;entryPerimeter=0;" edge="1" parent="1" source="Kjr8ZNpruh3fFirJT9Ei-6" target="Kjr8ZNpruh3fFirJT9Ei-8">
          <mxGeometry relative="1" as="geometry" />
        </mxCell>
        <mxCell id="Kjr8ZNpruh3fFirJT9Ei-13" style="edgeStyle=orthogonalEdgeStyle;rounded=0;orthogonalLoop=1;jettySize=auto;html=1;" edge="1" parent="1" source="Kjr8ZNpruh3fFirJT9Ei-11" target="Kjr8ZNpruh3fFirJT9Ei-12">
          <mxGeometry relative="1" as="geometry" />
        </mxCell>
        <mxCell id="Kjr8ZNpruh3fFirJT9Ei-11" value="" style="aspect=fixed;sketch=0;html=1;dashed=0;whitespace=wrap;verticalLabelPosition=bottom;verticalAlign=top;fillColor=#2875E2;strokeColor=#ffffff;points=[[0.005,0.63,0],[0.1,0.2,0],[0.9,0.2,0],[0.5,0,0],[0.995,0.63,0],[0.72,0.99,0],[0.5,1,0],[0.28,0.99,0]];shape=mxgraph.kubernetes.icon2;kubernetesLabel=1;prIcon=api" vertex="1" parent="1">
          <mxGeometry x="860" y="267" width="50" height="48" as="geometry" />
        </mxCell>
        <mxCell id="Kjr8ZNpruh3fFirJT9Ei-12" value="Källdata&lt;div&gt;DB&lt;/div&gt;" style="shape=cylinder3;whiteSpace=wrap;html=1;boundedLbl=1;backgroundOutline=1;size=15;" vertex="1" parent="1">
          <mxGeometry x="855" y="470" width="60" height="80" as="geometry" />
        </mxCell>
        <mxCell id="Kjr8ZNpruh3fFirJT9Ei-14" style="edgeStyle=orthogonalEdgeStyle;rounded=0;orthogonalLoop=1;jettySize=auto;html=1;entryX=0.005;entryY=0.63;entryDx=0;entryDy=0;entryPerimeter=0;" edge="1" parent="1" source="Kjr8ZNpruh3fFirJT9Ei-6" target="Kjr8ZNpruh3fFirJT9Ei-11">
          <mxGeometry relative="1" as="geometry" />
        </mxCell>
        <mxCell id="Kjr8ZNpruh3fFirJT9Ei-15" value="" style="shape=mxgraph.gcp2.doubleRect;strokeColor=#dddddd;shadow=1;strokeWidth=1;rounded=1;absoluteArcSize=1;arcSize=2;" vertex="1" parent="1">
          <mxGeometry x="201" y="-79" width="158" height="68" as="geometry" />
        </mxCell>
        <mxCell id="Kjr8ZNpruh3fFirJT9Ei-16" value="&lt;font style=&quot;color: light-dark(rgb(0, 0, 0), rgb(0, 127, 255));&quot;&gt;Ineras tjänste-&lt;/font&gt;&lt;div&gt;&lt;font&gt;&lt;font style=&quot;color: light-dark(rgb(0, 0, 0), rgb(0, 127, 255));&quot;&gt;katalog&lt;/font&gt;&lt;br&gt;&lt;/font&gt;Data Catalog&lt;/div&gt;" style="editableCssRules=.*;html=1;fontColor=#999999;shape=image;verticalLabelPosition=middle;verticalAlign=middle;labelPosition=right;align=left;spacingLeft=20;part=1;points=[];imageAspect=0;image=data:image/svg+xml,PHN2ZyB4bWxucz0iaHR0cDovL3d3dy53My5vcmcvMjAwMC9zdmciIHhtbG5zOnY9Imh0dHBzOi8vdmVjdGEuaW8vbmFubyIgd2lkdGg9IjM3Ni4yNzQ4ODc3NTcyNjMyIiBoZWlnaHQ9IjMzOS42NzM1NDQyMTc3NjM4MyIgdmlld0JveD0iMC4xMTQwMDAwMDAwNTk2MDQ2NCAtMC4wOTAwMDAwMDM1NzYyNzg2OSA5OS41NTU5OTk3NTU4NTkzOCA4OS44NzE5OTQwMTg1NTQ2OSI+JiN4YTs8c3R5bGUgdHlwZT0idGV4dC9jc3MiPiYjeGE7CS5zdDB7ZmlsbDojNDI4NWY0O30mI3hhOwkuc3Qxe2ZpbGw6I2FlY2JmYTt9JiN4YTs8L3N0eWxlPiYjeGE7CTxwYXRoIGNsYXNzPSJzdDAiIGQ9Ik03Ny41MjMgNDMuMzk3bDEyLjg0NCA3LjU3MnYxNC43NjdsLTEyLjg0NCA2LjY4ek01MC4zMTItLjA5bDEyLjg0NCA3LjU3MnYxNC43NjdsLTEyLjg0NCA2LjY4ek0yMy4xIDQzLjM5N2wxMi44NDQgNy41NzJ2MTQuNzY3TDIzLjEgNzIuNDE3em02OS40Ny0uNTExbDcuMS0xMS4xNjktMTIuNjY2LTIxLjU5NEg3MC42NDR2OS41aDEwLjkxOWw2Ljk3NyAxMS44OTUtNC4yNTYgNi42OTR6bS03Ni45NzktNC42TDExLjMgMzEuNDg1bDcuMjY0LTExLjg2MWg5Ljk3OWwuMDk5LTkuNUgxMy4yNDFMLjExNCAzMS41NjFsMS41NzYgMi40OTggNS41MTUgOC43Mzl6bTEzLjY2MiAzOS40NDlsNy42MDMgMTIuMDQ3aDI1LjkwMmw3LjczMy0xMi4xNjQtOC4xNDMtNC44OTktNC44MDggNy41NjRINDIuMDk1bC00Ljc0LTcuNTExeiIvPiYjeGE7CTxwYXRoIGNsYXNzPSJzdDEiIGQ9Ik03Ny41MjMgNDMuMzk3bC0xMi44NDQgNy41NzJ2MTQuNzY3bDEyLjg0NCA2LjY4ek01MC4zMTItLjA5TDM3LjQ2OCA3LjQ4MnYxNC43NjdsMTIuODQ0IDYuNjh6TTIzLjEgNDMuMzk3bC0xMi44NDQgNy41NzJ2MTQuNzY3bDEyLjg0NCA2LjY4eiIvPiYjeGE7PC9zdmc+;" vertex="1" parent="Kjr8ZNpruh3fFirJT9Ei-15">
          <mxGeometry width="30" height="27" relative="1" as="geometry">
            <mxPoint x="15" y="16" as="offset" />
          </mxGeometry>
        </mxCell>
        <mxCell id="Kjr8ZNpruh3fFirJT9Ei-19" style="edgeStyle=orthogonalEdgeStyle;rounded=0;orthogonalLoop=1;jettySize=auto;html=1;entryX=1;entryY=0.25;entryDx=0;entryDy=0;startArrow=classic;startFill=1;" edge="1" parent="1" source="Kjr8ZNpruh3fFirJT9Ei-18" target="Kjr8ZNpruh3fFirJT9Ei-15">
          <mxGeometry relative="1" as="geometry" />
        </mxCell>
        <mxCell id="Kjr8ZNpruh3fFirJT9Ei-18" value="Lokal&lt;div&gt;cache&lt;/div&gt;&lt;div&gt;tjänstekatalog&lt;/div&gt;" style="editableCssRules=.*;html=1;shape=image;verticalLabelPosition=bottom;labelBackgroundColor=#ffffff;verticalAlign=top;aspect=fixed;imageAspect=0;image=data:image/svg+xml,PHN2ZyB4bWxucz0iaHR0cDovL3d3dy53My5vcmcvMjAwMC9zdmciIHhtbG5zOnY9Imh0dHBzOi8vdmVjdGEuaW8vbmFubyIgd2lkdGg9IjM3Ni4yNzQ4ODc3NTcyNjMyIiBoZWlnaHQ9IjMzOS42NzM1NDQyMTc3NjM4MyIgdmlld0JveD0iMC4xMTQwMDAwMDAwNTk2MDQ2NCAtMC4wOTAwMDAwMDM1NzYyNzg2OSA5OS41NTU5OTk3NTU4NTkzOCA4OS44NzE5OTQwMTg1NTQ2OSI+JiN4YTs8c3R5bGUgdHlwZT0idGV4dC9jc3MiPiYjeGE7CS5zdDB7ZmlsbDojNDI4NWY0O30mI3hhOwkuc3Qxe2ZpbGw6I2FlY2JmYTt9JiN4YTs8L3N0eWxlPiYjeGE7CTxwYXRoIGNsYXNzPSJzdDAiIGQ9Ik03Ny41MjMgNDMuMzk3bDEyLjg0NCA3LjU3MnYxNC43NjdsLTEyLjg0NCA2LjY4ek01MC4zMTItLjA5bDEyLjg0NCA3LjU3MnYxNC43NjdsLTEyLjg0NCA2LjY4ek0yMy4xIDQzLjM5N2wxMi44NDQgNy41NzJ2MTQuNzY3TDIzLjEgNzIuNDE3em02OS40Ny0uNTExbDcuMS0xMS4xNjktMTIuNjY2LTIxLjU5NEg3MC42NDR2OS41aDEwLjkxOWw2Ljk3NyAxMS44OTUtNC4yNTYgNi42OTR6bS03Ni45NzktNC42TDExLjMgMzEuNDg1bDcuMjY0LTExLjg2MWg5Ljk3OWwuMDk5LTkuNUgxMy4yNDFMLjExNCAzMS41NjFsMS41NzYgMi40OTggNS41MTUgOC43Mzl6bTEzLjY2MiAzOS40NDlsNy42MDMgMTIuMDQ3aDI1LjkwMmw3LjczMy0xMi4xNjQtOC4xNDMtNC44OTktNC44MDggNy41NjRINDIuMDk1bC00Ljc0LTcuNTExeiIvPiYjeGE7CTxwYXRoIGNsYXNzPSJzdDEiIGQ9Ik03Ny41MjMgNDMuMzk3bC0xMi44NDQgNy41NzJ2MTQuNzY3bDEyLjg0NCA2LjY4ek01MC4zMTItLjA5TDM3LjQ2OCA3LjQ4MnYxNC43NjdsMTIuODQ0IDYuNjh6TTIzLjEgNDMuMzk3bC0xMi44NDQgNy41NzJ2MTQuNzY3bDEyLjg0NCA2LjY4eiIvPiYjeGE7PC9zdmc+;" vertex="1" parent="1">
          <mxGeometry x="514" y="-80" width="40" height="36" as="geometry" />
        </mxCell>
        <mxCell id="Kjr8ZNpruh3fFirJT9Ei-21" value="Publicera API" style="edgeStyle=orthogonalEdgeStyle;rounded=0;orthogonalLoop=1;jettySize=auto;html=1;entryX=0.5;entryY=0;entryDx=0;entryDy=0;" edge="1" parent="1" source="Kjr8ZNpruh3fFirJT9Ei-20" target="Kjr8ZNpruh3fFirJT9Ei-15">
          <mxGeometry relative="1" as="geometry" />
        </mxCell>
        <mxCell id="Kjr8ZNpruh3fFirJT9Ei-23" value="Publicera API" style="rounded=0;orthogonalLoop=1;jettySize=auto;html=1;" edge="1" parent="1" source="Kjr8ZNpruh3fFirJT9Ei-20" target="Kjr8ZNpruh3fFirJT9Ei-6">
          <mxGeometry relative="1" as="geometry" />
        </mxCell>
        <mxCell id="Kjr8ZNpruh3fFirJT9Ei-28" value="Publicera&lt;div&gt;regionala&amp;nbsp;&lt;/div&gt;&lt;div&gt;icke-inera-&lt;/div&gt;&lt;div&gt;tjänster&lt;/div&gt;" style="rounded=0;orthogonalLoop=1;jettySize=auto;html=1;entryX=1;entryY=0.5;entryDx=0;entryDy=0;" edge="1" parent="1" source="Kjr8ZNpruh3fFirJT9Ei-20" target="Kjr8ZNpruh3fFirJT9Ei-18">
          <mxGeometry relative="1" as="geometry" />
        </mxCell>
        <mxCell id="Kjr8ZNpruh3fFirJT9Ei-20" value="&lt;font style=&quot;color: light-dark(rgb(0, 0, 0), rgb(102, 178, 255));&quot;&gt;Administration&lt;/font&gt;" style="shadow=0;dashed=0;html=1;strokeColor=none;fillColor=#4495D1;labelPosition=center;verticalLabelPosition=bottom;verticalAlign=top;align=center;outlineConnect=0;shape=mxgraph.veeam.2d.web_ui;" vertex="1" parent="1">
          <mxGeometry x="827" y="-180" width="44.8" height="44.8" as="geometry" />
        </mxCell>
        <mxCell id="Kjr8ZNpruh3fFirJT9Ei-22" value="Publicera behörighet" style="rounded=0;orthogonalLoop=1;jettySize=auto;html=1;entryX=0.5;entryY=0;entryDx=0;entryDy=0;entryPerimeter=0;" edge="1" parent="1" source="Kjr8ZNpruh3fFirJT9Ei-20" target="Kjr8ZNpruh3fFirJT9Ei-8">
          <mxGeometry relative="1" as="geometry" />
        </mxCell>
        <mxCell id="Kjr8ZNpruh3fFirJT9Ei-27" value="Slå upp producent" style="rounded=0;orthogonalLoop=1;jettySize=auto;html=1;entryX=0;entryY=1;entryDx=0;entryDy=0;" edge="1" parent="1" source="Kjr8ZNpruh3fFirJT9Ei-24" target="Kjr8ZNpruh3fFirJT9Ei-18">
          <mxGeometry relative="1" as="geometry" />
        </mxCell>
        <mxCell id="Kjr8ZNpruh3fFirJT9Ei-24" value="&lt;div&gt;RÖL&lt;/div&gt;Konsument" style="rounded=0;whiteSpace=wrap;html=1;" vertex="1" parent="1">
          <mxGeometry x="394" y="80" width="120" height="60" as="geometry" />
        </mxCell>
        <mxCell id="Kjr8ZNpruh3fFirJT9Ei-26" value="Anropa producent&lt;div&gt;(inkl. dess åtkomstjänst)&lt;/div&gt;" style="rounded=0;orthogonalLoop=1;jettySize=auto;html=1;entryX=0.88;entryY=0.25;entryDx=0;entryDy=0;entryPerimeter=0;" edge="1" parent="1" source="Kjr8ZNpruh3fFirJT9Ei-24" target="Kjr8ZNpruh3fFirJT9Ei-3">
          <mxGeometry relative="1" as="geometry" />
        </mxCell>
      </root>
    </mxGraphModel>
  </diagram>
</mxfile>
